# xmcd CD database file
#
# Track frame offsets:
#	150
#	33906
#	79177
#	120392
#	159246
#	209547
#
# Disc length: 3358 seconds
#
# Revision: 1
# Processed by: cddbd v1.5.2PL0 Copyright (c) Steve Scherf et al.
# Submitted via: CDex 1.70beta3
#
DISCID=410d1c06
DTITLE=Tetsuro Kawashima Quartet - Lamentation (Live at Tokyo TUC) Disc1
DYEAR=2014
DGENRE=Jazz
TTITLE0=Aika (Live)
TTITLE1=Lamentation (Live)
TTITLE2=Runway (Live)
TTITLE3=Smoke of Peace (Live)
TTITLE4=Maelstrom (Live)
TTITLE5=Ave Maria (Franz Schubert) [Live]
EXTD=YEAR: 2014
EXTT0=
EXTT1=
EXTT2=
EXTT3=
EXTT4=
EXTT5=
PLAYORDER=
